<?xml version="1.0" encoding="utf-8"?>
<!-- Generator: Adobe Illustrator 27.5.0, SVG Export Plug-In . SVG Version: 6.00 Build 0)  -->
<svg version="1.1" id="Layer_1" xmlns="http://www.w3.org/2000/svg" xmlns:xlink="http://www.w3.org/1999/xlink" x="0px" y="0px"
	 viewBox="0 0 664.167 783.611" style="enable-background:new 0 0 664.167 783.611;" xml:space="preserve">
<g>
	<polygon points="244.038,697.708 252.905,697.708 252.905,659.542 265.833,659.542 265.833,651.505 231.303,651.505 
		231.303,659.542 244.038,659.542 	"/>
	<path d="M520.425,674.671c0-13.856-9.636-23.166-23.986-23.166h-14.919v46.203h15.112
		C511.081,697.708,520.425,688.666,520.425,674.671z M490.378,689.673v-30.131h6.183c8.69,0,14.758,6.222,14.758,15.129
		c0,8.832-6.229,15.003-15.135,15.003H490.378z"/>
	<polygon points="475.836,689.673 453.072,689.673 453.072,651.505 444.22,651.505 444.22,697.708 475.836,697.708 	"/>
	<path d="M56.111,681.668h5.511c4.775,4.39,8.122,9.097,11.165,15.694l0.162,0.346h9.834l-0.342-0.821
		c-2.843-6.908-6.267-12.141-11.359-17.322c6.054-2.12,9.375-6.84,9.375-13.391c0-9.462-5.679-14.669-15.998-14.669H47.252v46.203
		h8.859V681.668z M56.111,659.542h7.204c5.097,0,8.024,2.559,8.024,7.014c0,4.457-3.114,7.014-8.535,7.014h-6.694V659.542z"/>
	<path d="M411.367,681.668h5.514c4.776,4.39,8.121,9.097,11.167,15.694l0.161,0.346h9.828l-0.338-0.821
		c-2.845-6.908-6.268-12.141-11.359-17.322c6.052-2.12,9.375-6.84,9.375-13.391c0-9.462-5.683-14.669-15.996-14.669h-17.211v46.203
		h8.859V681.668z M411.367,659.542h7.206c5.099,0,8.021,2.559,8.021,7.014c0,4.457-3.115,7.014-8.529,7.014h-6.698V659.542z"/>
	<path d="M604.527,698.216c11.82,0,18.595-6.918,18.595-18.98v-27.731h-8.798v27.159c0,7.075-3.568,11.136-9.798,11.136
		c-6.152,0-9.682-4.061-9.682-11.136v-27.159h-8.79v27.731C586.055,691.298,592.784,698.216,604.527,698.216z"/>
	<path d="M640.134,681.668h7.137c10.736,0,16.896-5.463,16.896-14.986c0-9.647-5.837-15.177-16.004-15.177h-16.888v46.203h8.859
		V681.668z M640.134,659.542h6.952c5.129,0,7.96,2.491,7.96,7.014c0,4.523-3.03,7.014-8.536,7.014h-6.375V659.542z"/>
	<rect x="88.798" y="651.505" width="8.859" height="46.203"/>
	<path d="M372.938,698.216c13.497,0,23.294-9.928,23.294-23.61c0-13.901-9.575-23.609-23.294-23.609
		c-13.527,0-23.348,9.928-23.348,23.609C349.59,688.287,359.41,698.216,372.938,698.216z M372.938,659.351
		c8.183,0,14.12,6.416,14.12,15.255c0,8.696-6.068,15.255-14.12,15.255c-8.252,0-14.243-6.416-14.243-15.255
		C358.695,665.768,364.686,659.351,372.938,659.351z"/>
	<path d="M127.229,698.216c7.204,0,13.73-2.097,17.458-5.616l0.355-0.336l-4.549-7.265l-0.524,0.433
		c-3.67,3.015-7.308,4.303-12.172,4.303c-8.923,0-14.686-5.889-14.686-15.002c0-9.162,5.647-15.316,14.054-15.316
		c6.022,0,9.84,2.855,11.979,5.253l0.446,0.495l5.879-6.542l-0.374-0.398c-4.374-4.662-10.538-7.227-17.361-7.227
		c-14.234,0-23.797,9.536-23.797,23.735C103.936,688.779,113.299,698.216,127.229,698.216z"/>
	<polygon points="226.496,689.673 202.471,689.673 202.471,678.815 223.643,678.815 223.643,670.778 202.471,670.778 
		202.471,659.542 225.612,659.542 225.612,651.505 193.612,651.505 193.612,697.708 226.496,697.708 	"/>
	<path d="M23.227,659.416c6.022,0,9.841,2.855,11.979,5.253l0.446,0.495l5.879-6.542l-0.374-0.398
		c-4.374-4.662-10.538-7.227-17.361-7.227C9.562,650.997,0,660.533,0,674.732c0,14.047,9.362,23.483,23.292,23.483
		c7.204,0,13.731-2.097,17.458-5.616l0.356-0.336l-4.549-7.265l-0.524,0.433c-3.67,3.015-7.308,4.303-12.172,4.303
		c-8.923,0-14.686-5.889-14.686-15.002C9.175,665.57,14.822,659.416,23.227,659.416z"/>
	<path d="M177.047,651.505l-16.996,21.13v-21.13h-8.859v46.203h8.859v-13.181l5.452-6.432c4.822,5.097,9.951,12.912,12.612,19.248
		l0.154,0.365h9.682l-0.3-0.805c-3.168-8.377-9.798-18.546-16.235-24.936l17.011-20.462H177.047z"/>
	<path d="M579.903,692.264l-4.545-7.265l-0.523,0.433c-3.668,3.015-7.306,4.303-12.174,4.303c-8.921,0-14.689-5.889-14.689-15.002
		c0-9.162,5.653-15.316,14.058-15.316c6.022,0,9.836,2.855,11.974,5.253l0.446,0.495l5.883-6.542l-0.377-0.398
		c-4.376-4.662-10.536-7.227-17.357-7.227c-14.235,0-23.802,9.536-23.802,23.735c0,14.047,9.367,23.483,23.294,23.483
		c7.206,0,13.728-2.097,17.457-5.616L579.903,692.264z"/>
	<polygon points="326.403,697.708 333.878,697.708 348.659,652.283 348.913,651.505 339.346,651.505 330.171,682.831 
		321.973,651.947 321.858,651.505 312.829,651.505 304.331,682.831 295.472,651.934 295.341,651.505 285.713,651.505 
		300.348,697.294 300.486,697.708 307.9,697.708 317.328,664.665 326.28,697.271 	"/>
</g>
<g>
	<path d="M280.201,719.334l0.025,1.955l3.619,9.707l-22.565,51.612h17.416L282.873,772h29.191l3.926,10.608h18.652l-25.291-63.274
		H280.201z M288.198,758.672l9.843-24.96l9.055,24.803L288.198,758.672z"/>
	<path d="M189.707,719.334h-25.299l0.846,34.062l0.17,29.213h24.618c24.518,0,39.156-12.327,39.156-32.974
		C229.197,730.378,214.804,719.334,189.707,719.334z M191.278,769.955l-9.86,0.4l0.081-37.948h8.71
		c13.003,0,21.405,7.156,21.405,18.231C211.614,762.23,204.011,769.451,191.278,769.955z"/>
	<polygon points="238.099,753.897 238.269,782.608 253.928,782.608 253.928,753.903 254.688,719.334 237.254,719.334 	"/>
	<path d="M449.22,717.997c-19.54,0-33.723,13.972-33.723,33.224c0,19.372,13.518,32.389,33.639,32.389
		c19.923,0,33.311-13.352,33.311-33.224C482.447,731.014,469.093,717.997,449.22,717.997z M449.557,770.121
		c-9.96,0-16.394-7.32-16.394-18.649c0-12.121,5.963-19.65,15.556-19.65c9.656,0,16.142,7.561,16.142,18.815
		C464.861,762.656,458.999,770.121,449.557,770.121z"/>
	<path d="M591.151,747.711c6.591-2.273,9.926-6.764,9.926-13.362c0-10.696-9.842-16.351-28.459-16.351
		c-8.119,0-17.456,2.135-22.694,4.119l-0.257,0.097v15.678l0.56-0.258c3.479-1.596,12.592-5.309,22.054-5.309
		c7.441,0,11.214,2.227,11.214,6.619c0,3.504-3.201,5.952-7.786,5.952h-15.935v13.697l15.148-1.464
		c0.648-0.08,1.217-0.101,1.651-0.101c0.291,0,0.889,0.021,0.889,0.021c3.327,0,7.29,0.974,7.29,5.617
		c0,3.316-1.39,7.122-12.217,7.122c-9.757,0-16.411-2.744-21.119-5.136l-0.577-0.292v15.28l0.248,0.1
		c4.321,1.748,12.528,3.789,21.448,3.789c18.504,0,29.55-7.706,29.55-20.611C602.083,755.386,598.31,750.152,591.151,747.711z"/>
	<path d="M520.335,765.755c13.181-8.484,19.06-16.805,19.06-26.979c0-13.685-9.488-20.625-28.207-20.625
		c-0.472,0-0.947,0.005-1.428,0.013c-7.77,0.078-15.329,1.513-21.284,4.041l-0.244,0.102v16.794l0.585-0.309
		c7.534-4.002,13.484-5.634,20.526-5.634c5.727,0,12.554,1.394,12.554,8.039c0,5.5-3.967,9.396-15.88,18.31l-16.529,12.398v10.702
		h52.581v-16.035l-26.964,2.561L520.335,765.755z"/>
	<path d="M389.215,765.755c13.181-8.484,19.056-16.805,19.056-26.979c0-13.685-9.488-20.625-28.203-20.625
		c-0.476,0-0.952,0.005-1.432,0.013c-7.77,0.078-15.329,1.513-21.283,4.041l-0.24,0.102v16.794l0.581-0.309
		c7.538-4.002,13.484-5.634,20.53-5.634c5.723,0,12.549,1.394,12.549,8.039c0,5.5-3.963,9.396-15.881,18.31l-16.529,12.398v10.702
		h52.581v-16.035l-26.964,2.561L389.215,765.755z"/>
	<polygon points="138.096,754.968 111.432,719.334 89.202,719.334 89.202,721.285 99.03,734.111 88.945,782.608 106.238,782.608 
		110.924,744.625 140.274,782.608 152.142,782.608 152.142,764.184 153.912,719.334 136.547,719.334 	"/>
	<polygon points="62.929,753.897 63.098,782.608 78.757,782.608 78.757,753.903 79.517,719.334 62.083,719.334 	"/>
</g>
<g>
	<polygon points="302.495,607.332 313.744,626.935 313.918,627.233 319.61,627.233 331.105,607.219 331.105,635.92 339.963,635.92 
		339.963,589.716 331.35,589.716 316.8,616.138 302.424,590.023 302.25,589.716 293.636,589.716 293.636,635.92 302.495,635.92 	"/>
	<polygon points="397.669,604.994 419.418,635.671 419.592,635.92 428.036,635.918 428.036,589.716 419.243,589.716 419.243,621.14 
		397.307,589.967 397.133,589.716 388.876,589.716 388.876,635.92 397.669,635.92 	"/>
	<polygon points="446.264,589.716 437.367,589.716 435.26,606.945 442.174,606.945 	"/>
	<path d="M467.178,628.263c-4.414,0-8.38-1.412-12.128-4.313l-0.562-0.436l-4.18,8.067l0.427,0.3
		c4.116,2.889,10.041,4.547,16.256,4.547c11.21,0,16.89-4.743,16.89-14.099c0-8.958-6.778-11.353-15.359-14.382
		c-5.854-2.081-8.231-3.044-8.231-5.971c0-2.963,2.339-4.73,6.254-4.73c3.677,0,8.213,1.728,11.288,4.3l0.504,0.424l4.917-7.269
		l-0.414-0.346c-4.135-3.415-9.575-5.146-16.166-5.146c-9.414,0-15.493,5.285-15.493,13.464c0,9.072,7.391,11.559,13.91,13.753
		l1.292,0.433c5.712,1.903,8.316,2.769,8.316,6.419C474.699,626.355,471.817,628.263,467.178,628.263z"/>
	<path d="M255.515,636.574c4.313,0,8.646-0.822,12.309-2.055l0.516-7.946c-2.608,1.095-6.532,1.918-9.339,1.918
		c-9.307,0-12.392-5.616-10.437-15.685c1.743-8.974,7.251-15.48,15.875-15.48c3.149,0,6.204,0.478,9.042,1.37l2.529-8.083
		c-2.852-0.821-6.262-1.232-9.548-1.232c-15.469,0-25.129,10.273-27.976,24.932C236.249,625.821,239.363,636.574,255.515,636.574z"
		/>
	<polygon points="198.163,589.723 189.265,589.723 180.286,635.958 189.183,635.958 	"/>
	<polygon points="381.516,627.885 357.488,627.885 357.488,617.027 378.661,617.027 378.661,608.989 357.488,608.989 
		357.488,597.754 380.631,597.754 380.631,589.716 348.629,589.716 348.629,635.92 381.516,635.92 	"/>
	<path d="M230.725,626.574c-2.607,1.095-6.532,1.918-9.338,1.918c-9.309,0-12.393-5.616-10.437-15.685
		c1.742-8.974,7.25-15.48,15.874-15.48c3.149,0,6.204,0.478,9.043,1.37l2.527-8.083c-2.852-0.821-6.262-1.232-9.548-1.232
		c-15.468,0-25.131,10.273-27.977,24.932c-2.235,11.508,0.879,22.262,17.032,22.262c4.312,0,8.646-0.822,12.309-2.055
		L230.725,626.574z"/>
</g>
<g>
	<path d="M479.413,492.174c5.286,0,9.572-4.286,9.572-9.572c0-5.287-4.286-9.572-9.572-9.572c-5.287,0-9.572,4.284-9.572,9.572
		C469.841,487.888,474.125,492.174,479.413,492.174z"/>
	<path d="M175.182,482.603c0,5.286,4.286,9.572,9.572,9.572c5.286,0,9.572-4.286,9.572-9.572c0-5.287-4.285-9.572-9.572-9.572
		C179.468,473.031,175.182,477.315,175.182,482.603z"/>
	<path d="M245.784,67.338c13.552-4.56,27.582-8.079,41.997-10.458c14.414-2.378,29.213-3.617,44.302-3.617
		c15.089,0,29.889,1.239,44.304,3.617c14.414,2.379,28.445,5.898,41.995,10.458c0.31,0.106,0.617,0.017,0.825-0.178
		c0.208-0.195,0.315-0.495,0.228-0.811c-2.532-9.12-6.454-17.662-11.523-25.384c-5.069-7.722-11.285-14.621-18.407-20.46
		c-0.2-0.164-0.433-0.276-0.68-0.331c-0.244-0.053-0.502-0.05-0.754,0.014c-1.797,0.466-6.479,1.842-12.83,4.9
		c-6.349,3.059-14.362,7.799-22.82,14.995c-0.235,0.2-0.523,0.161-0.712,0.003c-0.19-0.157-0.282-0.431-0.127-0.701
		c4.303-7.478,9.366-13.264,14.034-17.585c4.669-4.322,8.944-7.178,11.672-8.799c0.269-0.161,0.321-0.444,0.231-0.672
		c-0.091-0.228-0.326-0.398-0.63-0.329c-4.045,0.902-11.304,2.902-20.003,6.98c-8.701,4.077-18.841,10.233-28.651,19.447
		c-0.224,0.211-0.51,0.184-0.705,0.035c-0.195-0.148-0.301-0.417-0.162-0.691c4.952-9.753,11.957-17.24,18.311-22.598
		c6.353-5.358,12.058-8.585,14.41-9.814c0.206-0.109,0.298-0.318,0.279-0.518c-0.017-0.198-0.142-0.389-0.365-0.461
		c-4.398-1.422-8.942-2.518-13.606-3.258C341.735,0.384,336.955,0,332.083,0c-20.824,0-40.007,7.021-55.311,18.826
		c-15.303,11.806-26.73,28.393-32.041,47.524c-0.088,0.316,0.02,0.616,0.228,0.811C245.167,67.355,245.474,67.444,245.784,67.338z"
		/>
	<path d="M115.926,372.564c0,6.284,5.094,11.376,11.377,11.376s11.377-5.092,11.377-11.376c0-6.283-5.094-11.376-11.377-11.376
		S115.926,366.281,115.926,372.564z"/>
	<path d="M167.865,228.011c0-7.512-6.091-13.603-13.603-13.603c-7.512,0-13.603,6.09-13.603,13.603
		c0,7.514,6.091,13.604,13.603,13.604C161.774,241.615,167.865,235.524,167.865,228.011z"/>
	<path d="M488.95,127.77c-0.342-0.274-0.768-0.298-1.118-0.145c-0.349,0.154-0.622,0.485-0.657,0.921
		c-1.28,16.048-3.155,31.26-4.843,43.212c-1.69,11.952-3.192,20.643-3.727,23.644c-0.055,0.312,0.027,0.612,0.202,0.844
		c0.176,0.233,0.442,0.395,0.757,0.43l35.987,3.935l35.987,3.935c0.379,0.041,0.68,0.264,0.841,0.564
		c0.162,0.299,0.187,0.672,0.016,1.014l-14.653,29.079l-14.655,29.079c-0.134,0.266-0.148,0.559-0.065,0.824
		c0.083,0.263,0.268,0.494,0.529,0.633l28.3,14.977l28.301,14.977c0.339,0.181,0.535,0.502,0.575,0.842
		c0.038,0.34-0.08,0.698-0.373,0.95l-21.592,18.654l-21.595,18.655c-0.228,0.197-0.354,0.468-0.375,0.745
		c-0.02,0.279,0.065,0.565,0.26,0.794l19.084,22.212l19.084,22.211c0.244,0.285,0.312,0.649,0.231,0.975
		c-0.082,0.328-0.312,0.617-0.661,0.754l-23.535,9.257l-23.535,9.258c-0.28,0.11-0.49,0.323-0.602,0.578
		c-0.112,0.255-0.126,0.553-0.017,0.835l9.621,24.833l9.622,24.834c0.132,0.343,0.08,0.702-0.096,0.979
		c-0.178,0.28-0.48,0.48-0.847,0.505l-22.603,1.573l-22.603,1.575c-0.302,0.02-0.565,0.161-0.75,0.372
		c-0.183,0.213-0.287,0.493-0.264,0.794l1.691,24.241l1.691,24.239c0.024,0.347-0.115,0.66-0.345,0.874
		c-0.23,0.216-0.551,0.332-0.896,0.285l-21.934-3.053l-21.932-3.053c-0.299-0.041-0.586,0.042-0.808,0.211
		c-0.224,0.167-0.383,0.42-0.425,0.718l-2.915,20.336l-2.916,20.335c-0.065,0.446,0.14,0.835,0.46,1.058
		c0.32,0.222,0.753,0.28,1.148,0.066c39.029-21.272,71.785-52.605,94.783-90.514c22.998-37.908,36.239-82.394,36.239-129.973
		c0-39.615-9.18-77.086-25.529-110.404C541.144,179.926,517.624,150.767,488.95,127.77z"/>
	<path d="M148.783,444.796c5.758,0,10.426-4.667,10.426-10.427c0-5.756-4.668-10.425-10.426-10.425
		c-5.759,0-10.426,4.669-10.426,10.425C138.357,440.129,143.024,444.796,148.783,444.796z"/>
	<path d="M409.645,502.659c-14.143-11.943-34.266-20.068-61.152-22.397c-0.425-0.038-0.844,0.053-1.208,0.245
		c-0.367,0.192-0.68,0.485-0.893,0.853c-3.344,5.78-6.216,10.546-8.493,14.231c-2.275,3.686-3.954,6.292-4.906,7.752
		c-0.216,0.329-0.564,0.494-0.91,0.494c-0.346,0-0.693-0.165-0.909-0.494c-0.954-1.46-2.633-4.064-4.906-7.748
		c-2.275-3.684-5.147-8.449-8.492-14.228c-0.214-0.372-0.529-0.664-0.896-0.858c-0.367-0.194-0.786-0.284-1.212-0.247
		c-26.886,2.33-47.006,10.453-61.149,22.4c-14.143,11.943-22.305,27.708-25.271,45.321c-0.069,0.412,0.098,0.782,0.381,1.016
		c0.283,0.231,0.681,0.326,1.074,0.183c14.042-5.138,29.85-9.235,46.916-12.047c17.067-2.812,35.39-4.34,54.463-4.34
		c19.073,0,37.398,1.527,54.464,4.34c17.065,2.812,32.874,6.909,46.916,12.047c0.392,0.143,0.79,0.05,1.074-0.183
		c0.283-0.232,0.449-0.603,0.381-1.016C431.952,530.37,423.789,514.604,409.645,502.659z"/>
	<path d="M127.011,288.771c-6.865,0-12.432,5.565-12.432,12.43c0,6.867,5.566,12.433,12.432,12.433
		c6.866,0,12.431-5.566,12.431-12.433C139.442,294.336,133.876,288.771,127.011,288.771z"/>
	<path d="M207.944,502.337c-0.042-0.296-0.201-0.549-0.425-0.716c-0.222-0.169-0.509-0.252-0.807-0.211l-21.934,3.053l-21.933,3.053
		c-0.343,0.047-0.666-0.069-0.896-0.285c-0.23-0.214-0.369-0.527-0.345-0.874l1.692-24.239l1.691-24.241
		c0.021-0.301-0.081-0.581-0.266-0.794c-0.183-0.211-0.448-0.351-0.748-0.373l-22.603-1.573l-22.604-1.573
		c-0.367-0.025-0.669-0.225-0.846-0.505c-0.177-0.277-0.229-0.636-0.096-0.979l9.622-24.834l9.622-24.833
		c0.108-0.282,0.093-0.579-0.018-0.835c-0.112-0.255-0.321-0.468-0.601-0.578l-23.535-9.258l-23.536-9.257
		c-0.349-0.137-0.579-0.427-0.66-0.754c-0.081-0.326-0.012-0.69,0.232-0.975l19.083-22.211l19.083-22.212
		c0.197-0.228,0.282-0.515,0.261-0.794c-0.021-0.277-0.147-0.548-0.375-0.745l-21.594-18.655l-21.594-18.654
		c-0.291-0.252-0.41-0.609-0.372-0.95c0.039-0.34,0.235-0.661,0.575-0.842l28.299-14.977l28.3-14.977
		c0.263-0.139,0.445-0.37,0.53-0.633c0.083-0.264,0.068-0.557-0.065-0.824l-14.654-29.079l-14.654-29.079
		c-0.171-0.342-0.147-0.715,0.016-1.014c0.162-0.299,0.462-0.523,0.841-0.564l35.988-3.935l35.988-3.935
		c0.313-0.035,0.58-0.197,0.755-0.43c0.175-0.231,0.258-0.532,0.202-0.844c-0.535-3.001-2.038-11.691-3.726-23.644
		c-1.689-11.953-3.564-27.165-4.844-43.212c-0.034-0.438-0.307-0.767-0.658-0.921c-0.348-0.153-0.775-0.129-1.117,0.145
		c-28.676,22.997-52.193,52.156-68.543,85.472c-16.349,33.318-25.529,70.79-25.529,110.404c0,47.579,13.241,92.065,36.239,129.973
		c22.998,37.909,55.753,69.242,94.782,90.514c0.394,0.214,0.828,0.156,1.148-0.066c0.319-0.224,0.524-0.611,0.46-1.058
		l-2.915-20.335L207.944,502.337z"/>
	<path d="M509.906,214.408c-7.512,0-13.603,6.09-13.603,13.603c0,7.514,6.091,13.604,13.603,13.604s13.603-6.09,13.603-13.604
		C523.509,220.498,517.418,214.408,509.906,214.408z"/>
	<path d="M536.866,383.94c6.283,0,11.376-5.092,11.376-11.376c0-6.283-5.094-11.376-11.376-11.376
		c-6.284,0-11.378,5.094-11.378,11.376C525.488,378.848,530.582,383.94,536.866,383.94z"/>
	<path d="M515.385,423.944c-5.758,0-10.427,4.669-10.427,10.425c0,5.76,4.669,10.427,10.427,10.427
		c5.757,0,10.425-4.667,10.425-10.427C525.811,428.612,521.142,423.944,515.385,423.944z"/>
	<path d="M549.588,301.201c0-6.865-5.566-12.43-12.431-12.43c-6.865,0-12.433,5.565-12.433,12.43
		c0,6.867,5.568,12.433,12.433,12.433C544.022,313.634,549.588,308.068,549.588,301.201z"/>
	<path d="M421.275,314.887c19.205-59.209,35.122-129.058,39.563-205.244c0.025-0.42-0.069-0.83-0.258-1.189
		c-0.19-0.357-0.477-0.666-0.838-0.88c-18.7-11.073-38.961-19.789-60.374-25.738c-21.411-5.949-43.976-9.129-67.284-9.129
		s-45.872,3.181-67.283,9.129c-21.413,5.949-41.672,14.664-60.373,25.736c-0.362,0.214-0.648,0.523-0.839,0.882
		c-0.19,0.361-0.284,0.77-0.26,1.19c4.442,76.203,20.365,146.063,39.576,205.277c19.21,59.212,41.709,107.779,59.301,141.392
		c0.145,0.276,0.154,0.58,0.052,0.844c-0.099,0.264-0.31,0.488-0.598,0.603c-7.126,2.84-13.963,6.651-20.439,11.326
		c-6.476,4.675-12.589,10.214-18.262,16.512c-0.308,0.343-0.258,0.77-0.027,1.055c0.228,0.283,0.638,0.427,1.042,0.203
		c6.996-3.873,14.719-7.005,23.145-9.387c8.424-2.382,17.552-4.015,27.36-4.891c2.639-0.236,5.593-0.814,8.488-2.428
		c2.896-1.616,5.735-4.266,8.144-8.651c0.214-0.384,0.592-0.578,0.973-0.578c0.381,0,0.761,0.194,0.973,0.578
		c2.411,4.385,5.248,7.035,8.144,8.651c2.896,1.614,5.849,2.192,8.49,2.428c9.808,0.875,18.934,2.508,27.358,4.891
		c8.425,2.382,16.147,5.514,23.143,9.387c0.406,0.224,0.814,0.08,1.045-0.203c0.23-0.287,0.28-0.713-0.028-1.057
		c-5.668-6.29-11.775-11.825-18.243-16.498c-6.468-4.67-13.299-8.481-20.417-11.321c-0.299-0.12-0.516-0.353-0.62-0.627
		c-0.104-0.274-0.096-0.589,0.054-0.875C379.576,422.657,402.068,374.093,421.275,314.887z M335.727,293.262
		c-2.007,7.498-2.962,15.347-3.373,19.682c-0.014,0.164-0.143,0.247-0.271,0.247c-0.127,0-0.255-0.083-0.271-0.247
		c-0.411-4.335-1.364-12.184-3.373-19.682c-2.009-7.501-5.075-14.655-9.707-17.594c-0.214-0.134-0.357-0.34-0.427-0.572
		c-0.069-0.231-0.061-0.487,0.03-0.723l6.492-16.664l6.492-16.664c0.135-0.348,0.45-0.521,0.764-0.521
		c0.313,0,0.628,0.173,0.764,0.521l6.492,16.664l6.492,16.664c0.093,0.236,0.101,0.491,0.031,0.723
		c-0.069,0.231-0.214,0.438-0.428,0.572C340.802,278.608,337.738,285.761,335.727,293.262z M346.521,452.391
		c-0.105,0.209-0.271,0.368-0.469,0.468c-0.198,0.098-0.428,0.134-0.658,0.095c-0.633-0.106-1.264-0.205-1.899-0.296
		c-0.635-0.09-1.269-0.173-1.905-0.25c-0.301-0.035-0.557-0.186-0.731-0.403c-0.172-0.217-0.26-0.502-0.222-0.8
		c3.67-27.978,7.996-64.797,11.877-107.834c3.881-43.041,7.315-92.301,9.203-145.163c0.013-0.376-0.157-0.705-0.42-0.913
		c-0.263-0.211-0.62-0.302-0.986-0.206c-4.503,1.192-9.121,2.107-13.833,2.722c-4.709,0.617-9.515,0.934-14.395,0.934
		c-4.878,0-9.682-0.317-14.393-0.934c-4.711-0.616-9.326-1.531-13.831-2.721c-0.364-0.098-0.723-0.005-0.987,0.205
		c-0.264,0.211-0.435,0.54-0.42,0.916c1.886,52.869,5.322,102.135,9.203,145.177c3.881,43.044,8.208,79.864,11.877,107.839
		c0.039,0.294-0.047,0.57-0.216,0.783c-0.168,0.214-0.42,0.361-0.713,0.397c-0.644,0.076-1.285,0.159-1.924,0.252
		c-0.639,0.091-1.277,0.19-1.913,0.298c-0.228,0.039-0.455,0.003-0.652-0.093c-0.195-0.098-0.361-0.257-0.465-0.465
		c-10.524-21.016-25.295-56.514-39.067-110.631c-13.77-54.113-26.54-126.844-33.061-222.325c-0.011-0.168,0.101-0.275,0.23-0.301
		c0.128-0.027,0.273,0.03,0.326,0.187c1.956,5.87,4.497,11.474,7.553,16.741c3.055,5.268,6.626,10.2,10.643,14.727
		c0.135,0.153,0.331,0.201,0.507,0.162c0.176-0.038,0.332-0.164,0.392-0.359c0.734-2.414,3.001-9.406,7.035-17.96
		c4.034-8.552,9.835-18.663,17.634-27.309c0.203-0.227,0.487-0.23,0.693-0.109c0.208,0.123,0.337,0.373,0.23,0.657
		c-3.826,10.208-5.876,22.364-6.949,33.469c-1.072,11.104-1.167,21.157-1.085,27.161c0.005,0.324,0.24,0.507,0.49,0.527
		c0.249,0.02,0.512-0.118,0.572-0.436c1.101-5.938,3.377-15.916,7.72-27.024c4.344-11.109,10.75-23.348,20.104-33.809
		c0.211-0.236,0.505-0.225,0.71-0.085c0.206,0.14,0.326,0.411,0.186,0.696c-6.579,13.524-9.405,29.096-10.528,42.09
		c-1.123,12.992-0.542,23.404-0.309,26.61c0.024,0.309,0.135,0.598,0.317,0.835c0.18,0.236,0.428,0.42,0.723,0.521
		c4.604,1.576,9.377,2.792,14.285,3.615c4.905,0.822,9.945,1.249,15.084,1.249c20.035,0,38.549-6.5,53.55-17.506
		c15.002-11.006,26.494-26.517,32.485-44.541c0.05-0.154,0.189-0.208,0.312-0.181c0.124,0.025,0.231,0.129,0.22,0.29
		c-6.517,95.504-19.287,168.251-33.058,222.378C371.819,395.864,357.047,431.369,346.521,452.391z"/>
</g>
</svg>
